<svg width="12" height="13" viewBox="0 0 12 13" fill="none" xmlns="http://www.w3.org/2000/svg">
<path fill-rule="evenodd" clip-rule="evenodd" d="M6 1.16647C6.79894 1.134 7.59898 1.15811 8.39501 1.23863C8.78116 1.23349 9.16477 1.30693 9.52591 1.45511C10.0242 1.70666 10.4246 2.14046 10.6568 2.68023C10.7936 3.07145 10.8614 3.48702 10.8566 3.90534C10.8566 4.55398 10.9232 4.77046 10.9232 6.4999C10.9532 7.36539 10.931 8.23209 10.8566 9.09445C10.8614 9.51277 10.7936 9.92834 10.6568 10.3196C10.4246 10.8593 10.0242 11.2931 9.52591 11.5447C9.16477 11.6929 8.78116 11.7663 8.39501 11.7612C7.79626 11.7612 7.59642 11.8333 6 11.8333C5.20106 11.8658 4.40102 11.8417 3.60499 11.7612C3.21884 11.7663 2.83523 11.6929 2.47409 11.5447C1.97584 11.2931 1.57541 10.8593 1.3432 10.3196C1.20641 9.92834 1.13863 9.51277 1.14337 9.09445C1.14337 8.44581 1.07676 8.22933 1.07676 6.4999C1.04679 5.6344 1.06904 4.7677 1.14337 3.90534C1.13863 3.48702 1.20641 3.07145 1.3432 2.68023C1.45927 2.41294 1.61672 2.16915 1.80873 1.95943C1.96466 1.70727 2.20199 1.52739 2.47409 1.45511C2.83523 1.30693 3.21884 1.23349 3.60499 1.23863C4.40102 1.15811 5.20106 1.134 6 1.16647ZM6 0.0135115C5.17887 -0.0181916 4.35672 0.00590933 3.53838 0.0856725C3.03854 0.0843709 2.54268 0.181914 2.07518 0.373506C1.67148 0.516193 1.30611 0.763644 1.01089 1.09431C0.705288 1.41426 0.476599 1.81037 0.34478 2.24807C0.136089 2.74434 0.0447754 3.28911 0.0790836 3.83318C0.00545486 4.7197 -0.0167925 5.61036 0.0124724 6.4999C-0.0167925 7.38943 0.00545486 8.28009 0.0790836 9.16661C0.0780301 9.70841 0.168326 10.2459 0.345529 10.7525C0.477242 11.1899 0.705662 11.5857 1.01089 11.9055C1.30611 12.2361 1.67148 12.4836 2.07518 12.6263C2.54287 12.8182 3.03899 12.9161 3.53913 12.9149C4.35724 12.9944 5.17914 13.0182 6 12.9863C6.82113 13.018 7.64328 12.9939 8.46162 12.9141C8.96176 12.9153 9.45788 12.8174 9.92557 12.6255C10.3263 12.4759 10.6903 12.2295 10.99 11.9048C11.2897 11.5802 11.5172 11.1858 11.6552 10.7517C11.8324 10.2451 11.9227 9.7076 11.9217 9.1658C11.9209 8.44581 11.9875 8.22933 11.9875 6.4999C12.0168 5.61036 11.9945 4.7197 11.9209 3.83318C11.922 3.29138 11.8317 2.75392 11.6545 2.24726C11.5228 1.80993 11.2943 1.41412 10.9891 1.09431C10.6939 0.763644 10.3285 0.516193 9.92482 0.373506C9.45732 0.181914 8.96146 0.0843709 8.46162 0.0856725C7.64328 0.00590933 6.82113 -0.0181916 6 0.0135115ZM6 3.18454C5.59626 3.17731 5.19531 3.25812 4.82099 3.42217C4.44667 3.58622 4.10663 3.83015 3.82111 4.13947C3.53558 4.44878 3.31041 4.81715 3.15897 5.22265C3.00754 5.62816 2.93295 6.06252 2.93962 6.4999C2.93962 7.15561 3.11911 7.7966 3.45539 8.34181C3.79167 8.88701 4.26963 9.31195 4.82885 9.56288C5.38806 9.81381 6.0034 9.87947 6.59705 9.75154C7.1907 9.62362 7.73601 9.30786 8.16401 8.8442C8.59201 8.38054 8.88349 7.7898 9.00157 7.14669C9.11966 6.50357 9.05905 5.83697 8.82742 5.23116C8.59579 4.62536 8.20353 4.10758 7.70025 3.74328C7.19698 3.37898 6.60528 3.18454 6 3.18454ZM6 8.66229C5.73653 8.66757 5.47478 8.61525 5.2304 8.50845C4.98602 8.40165 4.76403 8.24256 4.57769 8.0407C4.39136 7.83884 4.24451 7.59836 4.14592 7.33362C4.04733 7.06887 3.99903 6.78532 4.00391 6.4999C3.99903 6.21447 4.04733 5.93091 4.14592 5.66617C4.24451 5.40143 4.39136 5.16095 4.57769 4.95909C4.76403 4.75723 4.98602 4.59814 5.2304 4.49134C5.47478 4.38454 5.73653 4.33222 6 4.3375C6.26347 4.33222 6.52522 4.38454 6.7696 4.49134C7.01398 4.59814 7.23597 4.75723 7.42231 4.95909C7.60864 5.16095 7.75549 5.40143 7.85408 5.66617C7.95267 5.93091 8.00097 6.21447 7.99609 6.4999C8.00097 6.78532 7.95267 7.06887 7.85408 7.33362C7.75549 7.59836 7.60864 7.83884 7.42231 8.0407C7.23597 8.24256 7.01398 8.40165 6.7696 8.50845C6.52522 8.61525 6.26347 8.66757 6 8.66229ZM9.1936 2.24807C9.04883 2.24807 8.90731 2.29458 8.78693 2.38171C8.66656 2.46884 8.57274 2.59268 8.51734 2.73758C8.46194 2.88247 8.44744 3.04191 8.47569 3.19573C8.50393 3.34955 8.57364 3.49084 8.67601 3.60174C8.77838 3.71264 8.90881 3.78816 9.0508 3.81876C9.19279 3.84935 9.33996 3.83365 9.47371 3.77363C9.60746 3.71361 9.72178 3.61198 9.80221 3.48158C9.88264 3.35117 9.92557 3.19786 9.92557 3.04103C9.92401 2.83125 9.84639 2.63054 9.70945 2.4822C9.57252 2.33385 9.38725 2.24977 9.1936 2.24807Z" fill="white"/>
</svg>
