<svg width="12" height="13" viewBox="0 0 12 13" fill="none" xmlns="http://www.w3.org/2000/svg">
<path fill-rule="evenodd" clip-rule="evenodd" d="M6 1.07702C6.79894 1.04705 7.59898 1.0693 8.39501 1.14365C8.78116 1.13891 9.16477 1.20671 9.52591 1.34353C10.0242 1.5758 10.4246 1.97633 10.6568 2.47471C10.7936 2.83594 10.8614 3.21964 10.8566 3.60589C10.8566 4.20479 10.9232 4.40467 10.9232 6.00149C10.9532 6.80063 10.931 7.60087 10.8566 8.3971C10.8614 8.78334 10.7936 9.16705 10.6568 9.52828C10.4246 10.0267 10.0242 10.4272 9.52591 10.6595C9.16477 10.7963 8.78116 10.8641 8.39501 10.8593C7.79626 10.8593 7.59642 10.926 6 10.926C5.20106 10.9559 4.40102 10.9337 3.60499 10.8593C3.21884 10.8641 2.83523 10.7963 2.47409 10.6595C1.97584 10.4272 1.57541 10.0267 1.3432 9.52828C1.20641 9.16705 1.13863 8.78334 1.14337 8.3971C1.14337 7.7982 1.07676 7.59831 1.07676 6.00149C1.04679 5.20236 1.06904 4.40212 1.14337 3.60589C1.13863 3.21964 1.20641 2.83594 1.3432 2.47471C1.45927 2.22792 1.61672 2.00283 1.80873 1.80918C1.96466 1.57636 2.20199 1.41027 2.47409 1.34353C2.83523 1.20671 3.21884 1.13891 3.60499 1.14365C4.40102 1.0693 5.20106 1.04705 6 1.07702ZM6 0.0124755C5.17887 -0.0167967 4.35672 0.00545621 3.53838 0.0791033C3.03854 0.0779015 2.54268 0.167965 2.07518 0.344866C1.67148 0.476612 1.30611 0.705089 1.01089 1.0104C0.705288 1.30582 0.476599 1.67155 0.34478 2.07569C0.136089 2.53391 0.0447754 3.0369 0.0790836 3.53926C0.00545486 4.3578 -0.0167925 5.18016 0.0124724 6.00149C-0.0167925 6.82282 0.00545486 7.64518 0.0790836 8.46373C0.0780301 8.96399 0.168326 9.46023 0.345529 9.92804C0.477242 10.3318 0.705662 10.6973 1.01089 10.9926C1.30611 11.2979 1.67148 11.5264 2.07518 11.6581C2.54287 11.8354 3.03899 11.9257 3.53913 11.9246C4.35724 11.998 5.17914 12.02 6 11.9905C6.82113 12.0198 7.64328 11.9975 8.46162 11.9239C8.96176 11.9249 9.45788 11.8346 9.92557 11.6574C10.3263 11.5193 10.6903 11.2917 10.99 10.992C11.2897 10.6922 11.5172 10.3281 11.6552 9.92729C11.8324 9.45949 11.9227 8.96324 11.9217 8.46298C11.9209 7.7982 11.9875 7.59831 11.9875 6.00149C12.0168 5.18016 11.9945 4.3578 11.9209 3.53926C11.922 3.039 11.8317 2.54275 11.6545 2.07494C11.5228 1.67115 11.2943 1.30569 10.9891 1.0104C10.6939 0.705089 10.3285 0.476612 9.92482 0.344866C9.45732 0.167965 8.96146 0.0779015 8.46162 0.0791033C7.64328 0.00545621 6.82113 -0.0167967 6 0.0124755ZM6 2.94036C5.59626 2.93368 5.19531 3.00829 4.82099 3.15976C4.44667 3.31123 4.10663 3.53646 3.82111 3.82206C3.53558 4.10765 3.31041 4.44778 3.15897 4.82219C3.00754 5.1966 2.93295 5.59766 2.93962 6.00149C2.93962 6.60693 3.11911 7.19877 3.45539 7.70217C3.79167 8.20557 4.26963 8.59792 4.82885 8.82961C5.38806 9.0613 6.0034 9.12193 6.59705 9.00381C7.1907 8.8857 7.73601 8.59415 8.16401 8.16604C8.59201 7.73794 8.88349 7.19249 9.00157 6.59869C9.11966 6.00489 9.05905 5.3894 8.82742 4.83005C8.59579 4.2707 8.20353 3.79261 7.70025 3.45625C7.19698 3.11989 6.60528 2.94036 6 2.94036ZM6 7.99808C5.73653 8.00296 5.47478 7.95465 5.2304 7.85603C4.98602 7.75742 4.76403 7.61054 4.57769 7.42415C4.39136 7.23777 4.24451 7.01573 4.14592 6.77129C4.04733 6.52684 3.99903 6.26503 4.00391 6.00149C3.99903 5.73796 4.04733 5.47614 4.14592 5.2317C4.24451 4.98726 4.39136 4.76521 4.57769 4.57883C4.76403 4.39245 4.98602 4.24556 5.2304 4.14695C5.47478 4.04834 5.73653 4.00003 6 4.0049C6.26347 4.00003 6.52522 4.04834 6.7696 4.14695C7.01398 4.24556 7.23597 4.39245 7.42231 4.57883C7.60864 4.76521 7.75549 4.98726 7.85408 5.2317C7.95267 5.47614 8.00097 5.73796 7.99609 6.00149C8.00097 6.26503 7.95267 6.52684 7.85408 6.77129C7.75549 7.01573 7.60864 7.23777 7.42231 7.42415C7.23597 7.61054 7.01398 7.75742 6.7696 7.85603C6.52522 7.95465 6.26347 8.00296 6 7.99808ZM9.1936 2.07569C9.04883 2.07569 8.90731 2.11863 8.78693 2.19908C8.66656 2.27953 8.57274 2.39388 8.51734 2.52766C8.46194 2.66145 8.44744 2.80866 8.47569 2.95069C8.50393 3.09271 8.57364 3.22317 8.67601 3.32556C8.77838 3.42796 8.90881 3.49769 9.0508 3.52594C9.19279 3.55419 9.33996 3.53969 9.47371 3.48427C9.60746 3.42886 9.72178 3.33502 9.80221 3.21461C9.88264 3.09421 9.92557 2.95266 9.92557 2.80785C9.92401 2.61415 9.84639 2.42883 9.70945 2.29187C9.57252 2.1549 9.38725 2.07726 9.1936 2.07569Z" fill="#0E2368"/>
</svg>
