<svg width="12" height="13" viewBox="0 0 12 13" fill="none" xmlns="http://www.w3.org/2000/svg">
<path fill-rule="evenodd" clip-rule="evenodd" d="M3.80001 11.2354C4.72155 11.2437 5.6355 11.0683 6.4885 10.7193C7.34149 10.3704 8.11643 9.85487 8.76804 9.20296C9.41966 8.55106 9.9349 7.77582 10.2837 6.9225C10.6324 6.06919 10.8077 5.15491 10.7993 4.23308V3.89999C11.2651 3.54524 11.6703 3.11733 11.9992 2.6329C11.5522 2.8273 11.0814 2.96174 10.5991 3.03276C11.0949 2.7213 11.4707 2.25119 11.6655 1.6989C11.1839 1.96716 10.6683 2.16904 10.1326 2.29906C9.90698 2.04505 9.62963 1.84227 9.31919 1.70433C9.00874 1.5664 8.67239 1.49651 8.33272 1.49935C7.68161 1.50922 7.05994 1.77235 6.59949 2.23296C6.13903 2.69356 5.87599 3.31544 5.86612 3.96675C5.85098 4.14726 5.87372 4.32894 5.93287 4.50015C4.95184 4.45279 3.99225 4.19622 3.11842 3.74765C2.24459 3.29907 1.47669 2.66885 0.866194 1.89921C0.646809 2.28536 0.532029 2.72213 0.533215 3.16629C0.542013 3.56937 0.642647 3.96512 0.827452 4.32341C1.01226 4.6817 1.27636 4.99308 1.59965 5.23384C1.19901 5.22574 0.807804 5.11075 0.466471 4.90075C0.465847 5.47191 0.665759 6.02516 1.03132 6.46391C1.39687 6.90267 1.90485 7.19907 2.46659 7.30139C2.24951 7.35998 2.02428 7.38254 1.79989 7.36816C1.64144 7.3788 1.48252 7.35605 1.33341 7.30139C1.4964 7.79559 1.808 8.22736 2.22561 8.53769C2.64322 8.84801 3.14646 9.02173 3.66652 9.0351C2.7902 9.71979 1.71189 10.0949 0.599961 10.1019C0.397666 10.1127 0.194969 10.0902 0 10.0351C1.10321 10.8365 2.43679 11.2577 3.80001 11.2354Z" fill="#0E2368"/>
</svg>
