<svg width="12" height="13" viewBox="0 0 12 13" fill="none" xmlns="http://www.w3.org/2000/svg">
<path fill-rule="evenodd" clip-rule="evenodd" d="M3.79992 12.1689C4.72143 12.1779 5.63537 11.9878 6.48834 11.6099C7.34132 11.2319 8.11624 10.6736 8.76784 9.96761C9.41944 9.26157 9.93466 8.42194 10.2834 7.49776C10.6322 6.57358 10.8075 5.58338 10.7991 4.58499V4.22424C11.2648 3.84003 11.67 3.37658 11.999 2.85192C11.5519 3.06246 11.0811 3.20808 10.5988 3.28499C11.0946 2.94766 11.4705 2.43851 11.6652 1.84036C11.1837 2.1309 10.668 2.34954 10.1324 2.49036C9.90674 2.21525 9.6294 1.99563 9.31897 1.84624C9.00853 1.69685 8.67219 1.62116 8.33252 1.62424C7.68143 1.63493 7.05978 1.91991 6.59933 2.41876C6.13889 2.91762 5.87585 3.59114 5.86599 4.29655C5.85085 4.49205 5.87358 4.68881 5.93273 4.87424C4.95172 4.82294 3.99216 4.54507 3.11835 4.05924C2.24454 3.57342 1.47666 2.89086 0.866173 2.0573C0.646793 2.47552 0.532017 2.94857 0.533202 3.42961C0.542 3.86616 0.642632 4.29478 0.827433 4.68282C1.01223 5.07087 1.27633 5.40811 1.59961 5.66886C1.19898 5.66009 0.807785 5.53555 0.46646 5.30811C0.465836 5.92671 0.665744 6.52589 1.03129 7.00109C1.39684 7.47628 1.90481 7.7973 2.46654 7.90811C2.24945 7.97157 2.02423 7.996 1.79984 7.98042C1.6414 7.99195 1.48249 7.96731 1.33338 7.90811C1.49637 8.44335 1.80796 8.91098 2.22556 9.24708C2.64316 9.58317 3.14639 9.77132 3.66643 9.7858C2.79014 10.5274 1.71185 10.9336 0.599947 10.9412C0.397657 10.9529 0.194964 10.9285 0 10.8689C1.10319 11.7368 2.43673 12.193 3.79992 12.1689Z" fill="white"/>
</svg>
